<svg width="25" height="25" viewBox="0 0 25 25" fill="none" xmlns="http://www.w3.org/2000/svg">
<path d="M13.8995 6.4949C14.1149 6.71031 14.1149 7.05956 13.8995 7.27497L13.1863 7.98812L14.0836 8.88537H18.4738C19.2828 8.88537 19.9447 9.54728 19.9447 10.3563V13.8571C19.4152 13.504 18.79 13.2981 18.1061 13.2981C16.4071 13.2981 15.0171 14.5925 14.8333 16.2399H12.5239C12.5607 15.9972 12.5901 15.7545 12.5901 15.5045C12.5901 14.3719 12.1562 13.3422 11.4575 12.5627H11.8547C12.6637 12.5627 13.3256 11.9007 13.3256 11.0917V9.68752L12.4062 8.76819L11.6931 9.48133C11.4777 9.69674 11.1285 9.69674 10.913 9.48133C10.6976 9.26593 10.6976 8.91667 10.913 8.70127L13.1194 6.4949C13.3348 6.27949 13.684 6.27949 13.8995 6.4949Z" fill="white"/>
<path fill-rule="evenodd" clip-rule="evenodd" d="M11.8546 15.5265C11.8546 17.5574 10.2082 19.2038 8.17731 19.2038C6.14639 19.2038 4.5 17.5574 4.5 15.5265C4.5 13.4956 6.14639 11.8492 8.17731 11.8492C10.2082 11.8492 11.8546 13.4956 11.8546 15.5265ZM10.3837 15.5265C10.3837 16.7451 9.39586 17.7329 8.17731 17.7329C6.95876 17.7329 5.97092 16.7451 5.97092 15.5265C5.97092 14.3079 6.95876 13.3201 8.17731 13.3201C9.39586 13.3201 10.3837 14.3079 10.3837 15.5265Z" fill="white"/>
<path fill-rule="evenodd" clip-rule="evenodd" d="M18.1059 14.0336C16.6864 14.0336 15.5317 15.1883 15.5317 16.6077C15.5317 18.0271 16.6864 19.1818 18.1059 19.1818C19.5253 19.1818 20.68 18.0271 20.68 16.6077C20.68 15.1883 19.5253 14.0336 18.1059 14.0336ZM18.1059 17.7109C17.4954 17.7109 17.0027 17.2181 17.0027 16.6077C17.0027 15.9973 17.4954 15.5045 18.1059 15.5045C18.7163 15.5045 19.2091 15.9973 19.2091 16.6077C19.2091 17.2181 18.7163 17.7109 18.1059 17.7109Z" fill="white"/>
<path d="M10.3834 11.0917H6.70616C6.30166 11.0917 5.9707 10.7681 5.9707 10.3562C5.9707 9.95171 6.30166 9.62076 6.70616 9.62076H8.91252C9.72151 9.62076 10.3834 10.2827 10.3834 11.0917Z" fill="white"/>
</svg>
