<svg width="25" height="25" viewBox="0 0 25 25" fill="none" xmlns="http://www.w3.org/2000/svg">
<path d="M17.5 17.49C16.15 17.49 15.3 17.91 14.55 18.29C13.9 18.62 13.37 18.89 12.5 18.89C11.6 18.89 11.1 18.64 10.45 18.29C9.7 17.91 8.88 17.49 7.5 17.49C6.12 17.49 5.3 17.91 4.55 18.29C3.9 18.62 3.38 18.89 2.5 18.89V20.84C3.85 20.84 4.7 20.42 5.45 20.04C6.1 19.71 6.62 19.44 7.5 19.44C8.38 19.44 8.9 19.69 9.55 20.04C10.3 20.42 11.12 20.84 12.5 20.84C13.88 20.84 14.7 20.42 15.45 20.04C16.1 19.71 16.63 19.44 17.5 19.44C18.4 19.44 18.9 19.69 19.55 20.04C20.3 20.42 21.13 20.84 22.5 20.84V18.89C21.6 18.89 21.1 18.64 20.45 18.29C19.7 17.91 18.85 17.49 17.5 17.49ZM17.5 13.04C16.15 13.04 15.3 13.47 14.55 13.84C13.9 14.16 13.37 14.44 12.5 14.44C11.6 14.44 11.1 14.19 10.45 13.84C9.7 13.46 8.88 13.04 7.5 13.04C6.12 13.04 5.3 13.47 4.55 13.84C3.9 14.16 3.38 14.44 2.5 14.44V16.39C3.85 16.39 4.7 15.96 5.45 15.59C6.1 15.24 6.6 14.99 7.5 14.99C8.4 14.99 8.9 15.24 9.55 15.59C10.3 15.97 11.12 16.39 12.5 16.39C13.88 16.39 14.7 15.96 15.45 15.59C16.1 15.24 16.6 14.99 17.5 14.99C18.4 14.99 18.9 15.24 19.55 15.59C20.3 15.97 21.13 16.39 22.5 16.39V14.44C21.6 14.44 21.1 14.19 20.45 13.84C19.7 13.46 18.85 13.04 17.5 13.04ZM20.45 4.96C19.7 4.58 18.87 4.16 17.5 4.16C16.13 4.16 15.3 4.58 14.55 4.96C13.9 5.28 13.37 5.56 12.5 5.56C11.6 5.56 11.1 5.31 10.45 4.96C9.7 4.59 8.88 4.16 7.5 4.16C6.12 4.16 5.3 4.58 4.55 4.96C3.9 5.29 3.38 5.56 2.5 5.56V7.49C3.85 7.49 4.7 7.06 5.45 6.69C6.1 6.36 6.62 6.09 7.5 6.09C8.38 6.09 8.9 6.34 9.55 6.69C10.3 7.07 11.12 7.49 12.5 7.49C13.88 7.49 14.7 7.06 15.45 6.69C16.1 6.37 16.63 6.09 17.5 6.09C18.4 6.09 18.9 6.34 19.55 6.69C20.3 7.07 21.13 7.49 22.5 7.49V5.54C21.6 5.54 21.1 5.29 20.45 4.96V4.96ZM17.5 8.59C16.15 8.59 15.3 9.02 14.55 9.39C13.9 9.74 13.4 9.99 12.5 9.99C11.6 9.99 11.1 9.74 10.45 9.39C9.7 9.01 8.88 8.59 7.5 8.59C6.12 8.59 5.3 9.02 4.55 9.39C3.9 9.74 3.4 9.99 2.5 9.99V11.94C3.85 11.94 4.7 11.51 5.45 11.14C6.1 10.82 6.63 10.54 7.5 10.54C8.37 10.54 8.9 10.79 9.55 11.14C10.3 11.52 11.12 11.94 12.5 11.94C13.88 11.94 14.7 11.51 15.45 11.14C16.1 10.82 16.63 10.54 17.5 10.54C18.4 10.54 18.9 10.79 19.55 11.14C20.3 11.52 21.13 11.94 22.5 11.94V9.99C21.6 9.99 21.1 9.74 20.45 9.39C19.7 9.01 18.85 8.59 17.5 8.59Z" fill="white"/>
</svg>
